<svg xmlns="http://www.w3.org/2000/svg" xmlns:xlink="http://www.w3.org/1999/xlink" viewBox="0 0 333.08 380"><defs><style>.cls-1{isolation:isolate;}.cls-2{fill:url(#linear-gradient);}.cls-3{fill:#f6dd23;}.cls-10,.cls-13,.cls-4,.cls-7{opacity:0.51;}.cls-10,.cls-11,.cls-13,.cls-14,.cls-4,.cls-5,.cls-7,.cls-8{mix-blend-mode:screen;}.cls-4{fill:url(#radial-gradient);}.cls-11,.cls-14,.cls-5,.cls-8{opacity:0.7;}.cls-5{fill:url(#radial-gradient-2);}.cls-6{fill:url(#linear-gradient-2);}.cls-7{fill:url(#radial-gradient-3);}.cls-8{fill:url(#radial-gradient-4);}.cls-9{fill:url(#linear-gradient-3);}.cls-10{fill:url(#radial-gradient-5);}.cls-11{fill:url(#radial-gradient-6);}.cls-12{fill:url(#linear-gradient-4);}.cls-13{fill:url(#radial-gradient-7);}.cls-14{fill:url(#radial-gradient-8);}</style><linearGradient id="linear-gradient" x1="375.41" y1="857" x2="375.41" y2="477" gradientUnits="userSpaceOnUse"><stop offset="0" stop-color="#f6e134" stop-opacity="0.22"/><stop offset="0.5" stop-color="#f0b044"/><stop offset="0.55" stop-color="#f1bb40" stop-opacity="0.8"/><stop offset="0.6" stop-color="#f3c53d" stop-opacity="0.62"/><stop offset="0.65" stop-color="#f4ce3a" stop-opacity="0.47"/><stop offset="0.71" stop-color="#f5d538" stop-opacity="0.35"/><stop offset="0.77" stop-color="#f5da36" stop-opacity="0.25"/><stop offset="0.83" stop-color="#f6de35" stop-opacity="0.18"/><stop offset="0.9" stop-color="#f6e034" stop-opacity="0.14"/><stop offset="1" stop-color="#f6e134" stop-opacity="0.13"/></linearGradient><radialGradient id="radial-gradient" cx="375.41" cy="667" r="178.66" gradientTransform="translate(0 333.5) scale(1 0.5)" gradientUnits="userSpaceOnUse"><stop offset="0" stop-color="#f6e134" stop-opacity="0"/><stop offset="0.12" stop-color="#f6dd35" stop-opacity="0.05"/><stop offset="0.35" stop-color="#f4d438" stop-opacity="0.19"/><stop offset="0.65" stop-color="#f2c43d" stop-opacity="0.41"/><stop offset="1" stop-color="#f0b044" stop-opacity="0.7"/></radialGradient><radialGradient id="radial-gradient-2" cx="375.41" cy="667" r="178.66" gradientUnits="userSpaceOnUse"><stop offset="0.11" stop-color="#fff"/><stop offset="0.23" stop-color="#cee696"/><stop offset="0.43" stop-color="#f7ffaa"/><stop offset="0.53" stop-color="#d8ff3f"/><stop offset="0.69" stop-color="#f2e6fa"/><stop offset="0.72" stop-color="#f0e7f6"/><stop offset="0.74" stop-color="#eaebea"/><stop offset="0.77" stop-color="#e1f1d6"/><stop offset="0.8" stop-color="#d4faba"/><stop offset="0.81" stop-color="#cfa"/><stop offset="0.98" stop-color="#fff"/></radialGradient><linearGradient id="linear-gradient-2" x1="375.41" y1="795.59" x2="375.41" y2="538.41" xlink:href="#linear-gradient"/><radialGradient id="radial-gradient-3" cx="375.41" r="131.47" xlink:href="#radial-gradient"/><radialGradient id="radial-gradient-4" cx="375.41" r="131.47" xlink:href="#radial-gradient-2"/><linearGradient id="linear-gradient-3" x1="375.41" y1="816.06" x2="375.41" y2="517.94" xlink:href="#linear-gradient"/><radialGradient id="radial-gradient-5" cx="375.41" r="135.96" xlink:href="#radial-gradient"/><radialGradient id="radial-gradient-6" cx="375.41" r="135.96" xlink:href="#radial-gradient-2"/><linearGradient id="linear-gradient-4" x1="375.41" y1="667" x2="375.41" y2="667" xlink:href="#linear-gradient"/><radialGradient id="radial-gradient-7" cx="375.41" r="0" xlink:href="#radial-gradient"/><radialGradient id="radial-gradient-8" cx="375.41" r="0" xlink:href="#radial-gradient-2"/></defs><title>star</title><g class="cls-1"><g id="Layer_1" data-name="Layer 1"><path class="cls-2" d="M377.95,477l36,158,128,42-131,10-38,170-40-164L208.86,666.7,331.95,641Z" transform="translate(-208.86 -477)"/><path class="cls-3" d="M377.95,477l36,158,128,42-131,10-38,170-40-164L208.86,666.7,331.95,641Z" transform="translate(-208.86 -477)"/><path class="cls-4" d="M377.95,477l36,158,128,42-131,10-38,170-40-164L208.86,666.7,331.95,641Z" transform="translate(-208.86 -477)"/><path class="cls-5" d="M377.95,477l36,158,128,42-131,10-38,170-40-164L208.86,666.7,331.95,641Z" transform="translate(-208.86 -477)"/><path class="cls-6" d="M241.12,612.4,356,640.85,429.1,538.41,390.68,663.74l119,77.16-134-48.14L317.13,795.59l21.51-103.24Z" transform="translate(-208.86 -477)"/><path class="cls-3" d="M241.12,612.4,356,640.85,429.1,538.41,390.68,663.74l119,77.16-134-48.14L317.13,795.59l21.51-103.24Z" transform="translate(-208.86 -477)"/><path class="cls-7" d="M241.12,612.4,356,640.85,429.1,538.41,390.68,663.74l119,77.16-134-48.14L317.13,795.59l21.51-103.24Z" transform="translate(-208.86 -477)"/><path class="cls-8" d="M241.12,612.4,356,640.85,429.1,538.41,390.68,663.74l119,77.16-134-48.14L317.13,795.59l21.51-103.24Z" transform="translate(-208.86 -477)"/><path class="cls-9" d="M473,816.06l-94.89-90.9L254,783.85l74.41-105.7L293.21,517.94l93.92,116.51,109.74-53.65-75.67,98.34Z" transform="translate(-208.86 -477)"/><path class="cls-3" d="M473,816.06l-94.89-90.9L254,783.85l74.41-105.7L293.21,517.94l93.92,116.51,109.74-53.65-75.67,98.34Z" transform="translate(-208.86 -477)"/><path class="cls-10" d="M473,816.06l-94.89-90.9L254,783.85l74.41-105.7L293.21,517.94l93.92,116.51,109.74-53.65-75.67,98.34Z" transform="translate(-208.86 -477)"/><path class="cls-11" d="M473,816.06l-94.89-90.9L254,783.85l74.41-105.7L293.21,517.94l93.92,116.51,109.74-53.65-75.67,98.34Z" transform="translate(-208.86 -477)"/><path class="cls-12" d="M375.41,667" transform="translate(-208.86 -477)"/><path class="cls-3" d="M375.41,667" transform="translate(-208.86 -477)"/><path class="cls-13" d="M375.41,667" transform="translate(-208.86 -477)"/><path class="cls-14" d="M375.41,667" transform="translate(-208.86 -477)"/><path class="cls-12" d="M375.41,667" transform="translate(-208.86 -477)"/><path class="cls-3" d="M375.41,667" transform="translate(-208.86 -477)"/><path class="cls-13" d="M375.41,667" transform="translate(-208.86 -477)"/><path class="cls-14" d="M375.41,667" transform="translate(-208.86 -477)"/></g></g></svg>