<?xml version="1.0" encoding="UTF-8"?>
<svg width="34px" height="35px" viewBox="0 0 34 35" version="1.1" xmlns="http://www.w3.org/2000/svg" xmlns:xlink="http://www.w3.org/1999/xlink">
    <!-- Generator: Sketch 41 (35326) - http://www.bohemiancoding.com/sketch -->
    <title>Shape</title>
    <desc>Created with Sketch.</desc>
    <defs></defs>
    <g id="Star-Walks" stroke="none" stroke-width="1" fill="none" fill-rule="evenodd">
        <g id="noun_746613_cc" fill="#4C61AB">
            <g id="Group">
                <g transform="translate(0.000000, 0.476329)" id="Shape">
                    <path d="M14.5714291,7.46808513e-06 C13.674477,7.46808513e-06 12.9523819,0.729607737 12.9523819,1.63587334 L12.9523819,3.88518891 C12.1147678,4.14491125 11.3101823,4.47366303 10.5491087,4.88204468 L8.98065667,3.29729962 C8.34639492,2.6564737 7.32546421,2.6564737 6.69124293,3.29729962 L3.26339613,6.76073439 C2.62913437,7.40156031 2.62913437,8.43312097 3.26339613,9.07395098 L4.83184814,10.658696 C4.42765299,11.4277084 4.10226498,12.2406356 3.84524123,13.0869344 L1.61905128,13.0869344 C0.722099114,13.0869344 4.04761812e-06,13.8165265 4.04761812e-06,14.7228003 L4.04761812e-06,19.6304061 C4.04761812e-06,20.5366758 0.722099114,21.266272 1.61905128,21.266272 L3.84524123,21.266272 C4.10226498,22.1125463 4.42765299,22.9254898 4.83184814,23.6945104 L3.26339613,25.2792554 C2.62913437,25.920065 2.62913437,26.9516011 3.26339613,27.5924516 L6.69124293,31.0559068 C7.32546421,31.6967164 8.34639492,31.6967164 8.98065667,31.0559068 L10.5491087,29.4711617 C11.3101823,29.8795557 12.1147678,30.2082829 12.9523819,30.4680175 L12.9523819,32.7173331 C12.9523819,33.6236028 13.674477,34.353199 14.5714291,34.353199 L19.4285709,34.353199 C20.3254825,34.353199 21.0476181,33.6236028 21.0476181,32.7173331 L21.0476181,30.4680175 C21.881306,30.2087328 22.6804272,29.8777971 23.4382628,29.4711617 L25.0067148,31.0559068 C25.640936,31.6967164 26.6618667,31.6967164 27.2961285,31.0559068 L30.7366039,27.5924516 C31.3708251,26.9516011 31.3708251,25.920065 30.7366039,25.2792554 L29.1555233,23.6817097 C29.5573303,22.9156337 29.8987874,22.1089883 30.1547588,21.266272 L32.3809487,21.266272 C33.2778604,21.266272 33.999996,20.5366758 33.999996,19.6304061 L33.999996,14.7228003 C33.999996,13.8165265 33.2778604,13.0869344 32.3809487,13.0869344 L30.1547588,13.0869344 C29.8987874,12.2442222 29.5573303,11.4375972 29.1555233,10.6714762 L30.7366039,9.07395098 C31.3708251,8.43312097 31.3708251,7.40156031 30.7366039,6.76073439 L27.2961285,3.29729962 C26.6618667,2.6564737 25.640936,2.6564737 25.0067148,3.29729962 L23.4382628,4.88204468 C22.6804272,4.47542159 21.881306,4.14446956 21.0476181,3.88518891 L21.0476181,1.63587334 C21.0476181,0.729607737 20.3254825,7.46808513e-06 19.4285709,7.46808513e-06 L14.5714291,7.46808513e-06 Z M17,6.73905893 C22.6929891,6.73905893 27.3302288,11.4244232 27.3302288,17.1766084 C27.3302288,22.928684 22.6929891,27.6141475 17,27.6141475 C11.3070109,27.6141475 6.6697712,22.9287362 6.6697712,17.1766084 C6.6697712,11.424418 11.3070109,6.73905893 17,6.73905893 Z M17,13.1580609 C14.7975623,13.1580609 13.0227756,14.9512439 13.0227756,17.1766057 C13.0227756,19.4019224 14.7975623,21.1951455 17,21.1951455 C19.2024626,21.1951455 20.9772244,19.4019224 20.9772244,17.1766057 C20.9772244,14.9512464 19.2024626,13.1580609 17,13.1580609 Z"></path>
                </g>
            </g>
        </g>
    </g>
</svg>